<svg xmlns="http://www.w3.org/2000/svg" viewBox="0 0 48 48" width="48" height="48">
  <rect width="48" height="48" rx="11" fill="#FFFFFF" />
  <g transform="translate(-3.3 -0.5) scale(0.0909)" fill="none" stroke-linecap="round">
    <path d="M 120 470 L 120 320 A 200 280 0 0 1 300 70 A 200 280 0 0 1 480 320 L 480 470" stroke="#2C5F94" stroke-width="18" />
    <path d="M 175 470 L 175 335 A 145 240 0 0 1 300 130 A 145 240 0 0 1 425 335 L 425 470" stroke="#E37416" stroke-width="17" />
    <path d="M 230 470 L 230 350 A 90 200 0 0 1 300 190 A 90 200 0 0 1 370 350 L 370 470" stroke="#C73A2C" stroke-width="16" />
    <g transform="translate(300 400)" fill="#2C5F94" stroke="none">
      <path d="M 0 -32 L 28 16 L -28 16 Z" />
      <path d="M 0 32 L 28 -16 L -28 -16 Z" />
    </g>
  </g>
</svg>
